<?xml version="1.0" standalone="no"?>
<svg
  width="600"
  height="600"
  viewBox="0 0 600 600"
  xmlns="http://www.w3.org/2000/svg"
>
  <g transform="translate(300,300)">
    <path d="M65.7,-102C92.9,-70.6,128.3,-61.9,149.6,-38.6C170.9,-15.3,178.2,22.5,163.4,48.6C148.7,74.7,112,89.1,81.1,107.9C50.2,126.7,25.1,149.9,-9.3,162.7C-43.7,175.5,-87.4,177.9,-117.8,159C-148.3,140.1,-165.4,99.7,-162.6,63.4C-159.8,27.2,-137,-4.9,-120.5,-34.1C-104.1,-63.3,-94.1,-89.5,-75.1,-123.6C-56,-157.8,-28,-199.9,-4.4,-193.8C19.2,-187.8,38.4,-133.5,65.7,-102Z" fill="#0e0e0e" />
  </g>
</svg>
  